<svg xmlns="http://www.w3.org/2000/svg"><symbol id="telegram" viewBox="0 0 24 24"><path d="m2.511,10.749c5.907-2.54,9.844-4.215,11.816-5.024,5.625-2.31,6.794-2.712,7.557-2.725.167-.003.542.038.785.233.203.164.261.386.288.542s.061.51.033.787c-.306,3.163-1.624,10.837-2.296,14.379-.282,1.499-.842,2.001-1.384,2.05-1.175.107-2.069-.767-3.208-1.504-1.784-1.154-2.79-1.872-4.522-2.998-1.999-1.301-.703-2.017.436-3.185.3-.306,5.483-4.961,5.582-5.383.012-.053.024-.25-.094-.353-.118-.104-.294-.068-.418-.04-.179.04-3.029,1.899-8.545,5.576-.809.548-1.542.815-2.199.801-.724-.015-2.114-.404-3.147-.736-1.269-.407-2.278-.622-2.19-1.314.045-.36.548-.728,1.505-1.105Z" /></symbol><symbol id="applemusic" viewBox="0 0 24 24"><path d="m22.999,7.094c-.001-.221-.004-.443-.01-.664-.013-.482-.041-.968-.127-1.445-.087-.484-.229-.934-.453-1.374-.22-.432-.507-.827-.85-1.17-.343-.343-.738-.63-1.17-.85-.44-.224-.89-.366-1.373-.453-.477-.086-.963-.114-1.445-.127-.221-.006-.443-.009-.664-.01-.263-.002-.526-.001-.788-.001H7.882c-.263,0-.526,0-.788.001-.221.001-.443.004-.664.01-.482.013-.969.041-1.445.127-.484.087-.934.229-1.373.453-.432.22-.827.507-1.17.85-.343.343-.63.738-.85,1.17-.224.44-.366.89-.453,1.374-.086.477-.114.963-.127,1.445-.006.221-.009.443-.01.664-.002.263-.001.525-.001.788v8.236c0,.263,0,.526.001.788.001.221.004.443.01.664.013.482.041.968.127,1.445.087.484.229.934.453,1.374.22.432.507.827.85,1.17s.738.63,1.17.85c.44.224.89.366,1.373.453.477.086.963.114,1.445.127.221.006.443.008.664.01.263.002.526.002.788.002h8.236c.263,0,.526,0,.788-.002.221-.001.443-.004.664-.01.482-.013.969-.041,1.445-.127.484-.087.934-.229,1.373-.453.432-.22.827-.507,1.17-.85s.63-.738.85-1.17c.224-.44.366-.89.453-1.374.086-.477.114-.963.127-1.445.006-.221.009-.443.01-.664.002-.263.001-.526.001-.788V7.882c0-.263,0-.526-.001-.788Zm-5.894,8.222c0,.279-.003.531-.061.81-.057.271-.161.525-.32.755-.159.229-.364.416-.602.557-.241.142-.494.223-.764.278-.507.102-.854.125-1.18.06-.314-.063-.581-.208-.794-.403-.316-.289-.513-.681-.555-1.089-.05-.479.109-.991.469-1.368.181-.19.409-.341.714-.459.318-.124.67-.197,1.21-.306.142-.029.285-.057.427-.086.187-.038.348-.086.477-.244.13-.159.132-.353.132-.545v-4.846c0-.371-.166-.472-.52-.404-.253.049-5.689,1.146-5.689,1.146-.307.074-.414.174-.414.555v7.098c0,.279-.014.531-.073.81-.057.271-.161.525-.32.755-.159.229-.364.416-.602.557-.241.142-.494.227-.764.282-.507.102-.854.125-1.18.06-.314-.063-.581-.212-.794-.407-.316-.289-.5-.681-.543-1.089-.05-.479.096-.991.456-1.368.182-.19.409-.341.714-.459.318-.124.67-.197,1.21-.306.142-.029.285-.057.427-.086.187-.038.348-.086.477-.244.129-.158.145-.344.145-.535,0-1.503,0-8.184,0-8.184,0-.11.009-.184.015-.221.026-.172.095-.32.22-.425.104-.087.237-.147.408-.183h.003s6.539-1.32,6.539-1.32c.057-.012.529-.096.582-.1.353-.031.552.202.552.578v10.376Z" /></symbol><symbol id="applemusic" viewBox="0 0 24 24"><path d="m22.999,7.094c-.001-.221-.004-.443-.01-.664-.013-.482-.041-.968-.127-1.445-.087-.484-.229-.934-.453-1.374-.22-.432-.507-.827-.85-1.17-.343-.343-.738-.63-1.17-.85-.44-.224-.89-.366-1.373-.453-.477-.086-.963-.114-1.445-.127-.221-.006-.443-.009-.664-.01-.263-.002-.526-.001-.788-.001H7.882c-.263,0-.526,0-.788.001-.221.001-.443.004-.664.01-.482.013-.969.041-1.445.127-.484.087-.934.229-1.373.453-.432.22-.827.507-1.17.85-.343.343-.63.738-.85,1.17-.224.44-.366.89-.453,1.374-.086.477-.114.963-.127,1.445-.006.221-.009.443-.01.664-.002.263-.001.525-.001.788v8.236c0,.263,0,.526.001.788.001.221.004.443.01.664.013.482.041.968.127,1.445.087.484.229.934.453,1.374.22.432.507.827.85,1.17s.738.63,1.17.85c.44.224.89.366,1.373.453.477.086.963.114,1.445.127.221.006.443.008.664.01.263.002.526.002.788.002h8.236c.263,0,.526,0,.788-.002.221-.001.443-.004.664-.01.482-.013.969-.041,1.445-.127.484-.087.934-.229,1.373-.453.432-.22.827-.507,1.17-.85s.63-.738.85-1.17c.224-.44.366-.89.453-1.374.086-.477.114-.963.127-1.445.006-.221.009-.443.01-.664.002-.263.001-.526.001-.788V7.882c0-.263,0-.526-.001-.788Zm-5.894,8.222c0,.279-.003.531-.061.81-.057.271-.161.525-.32.755-.159.229-.364.416-.602.557-.241.142-.494.223-.764.278-.507.102-.854.125-1.18.06-.314-.063-.581-.208-.794-.403-.316-.289-.513-.681-.555-1.089-.05-.479.109-.991.469-1.368.181-.19.409-.341.714-.459.318-.124.67-.197,1.21-.306.142-.029.285-.057.427-.086.187-.038.348-.086.477-.244.13-.159.132-.353.132-.545v-4.846c0-.371-.166-.472-.52-.404-.253.049-5.689,1.146-5.689,1.146-.307.074-.414.174-.414.555v7.098c0,.279-.014.531-.073.81-.057.271-.161.525-.32.755-.159.229-.364.416-.602.557-.241.142-.494.227-.764.282-.507.102-.854.125-1.18.06-.314-.063-.581-.212-.794-.407-.316-.289-.5-.681-.543-1.089-.05-.479.096-.991.456-1.368.182-.19.409-.341.714-.459.318-.124.67-.197,1.21-.306.142-.029.285-.057.427-.086.187-.038.348-.086.477-.244.129-.158.145-.344.145-.535,0-1.503,0-8.184,0-8.184,0-.11.009-.184.015-.221.026-.172.095-.32.22-.425.104-.087.237-.147.408-.183h.003s6.539-1.32,6.539-1.32c.057-.012.529-.096.582-.1.353-.031.552.202.552.578v10.376Z" /></symbol></svg>