<svg xmlns="http://www.w3.org/2000/svg"><symbol id="applemusic" viewBox="0 0 24 24"><path d="m22.999,7.094c-.001-.221-.004-.443-.01-.664-.013-.482-.041-.968-.127-1.445-.087-.484-.229-.934-.453-1.374-.22-.432-.507-.827-.85-1.17-.343-.343-.738-.63-1.17-.85-.44-.224-.89-.366-1.373-.453-.477-.086-.963-.114-1.445-.127-.221-.006-.443-.009-.664-.01-.263-.002-.526-.001-.788-.001H7.882c-.263,0-.526,0-.788.001-.221.001-.443.004-.664.01-.482.013-.969.041-1.445.127-.484.087-.934.229-1.373.453-.432.22-.827.507-1.17.85-.343.343-.63.738-.85,1.17-.224.44-.366.89-.453,1.374-.086.477-.114.963-.127,1.445-.006.221-.009.443-.01.664-.002.263-.001.525-.001.788v8.236c0,.263,0,.526.001.788.001.221.004.443.01.664.013.482.041.968.127,1.445.087.484.229.934.453,1.374.22.432.507.827.85,1.17s.738.63,1.17.85c.44.224.89.366,1.373.453.477.086.963.114,1.445.127.221.006.443.008.664.01.263.002.526.002.788.002h8.236c.263,0,.526,0,.788-.002.221-.001.443-.004.664-.01.482-.013.969-.041,1.445-.127.484-.087.934-.229,1.373-.453.432-.22.827-.507,1.17-.85s.63-.738.85-1.17c.224-.44.366-.89.453-1.374.086-.477.114-.963.127-1.445.006-.221.009-.443.01-.664.002-.263.001-.526.001-.788V7.882c0-.263,0-.526-.001-.788Zm-5.894,8.222c0,.279-.003.531-.061.81-.057.271-.161.525-.32.755-.159.229-.364.416-.602.557-.241.142-.494.223-.764.278-.507.102-.854.125-1.18.06-.314-.063-.581-.208-.794-.403-.316-.289-.513-.681-.555-1.089-.05-.479.109-.991.469-1.368.181-.19.409-.341.714-.459.318-.124.67-.197,1.21-.306.142-.029.285-.057.427-.086.187-.038.348-.086.477-.244.13-.159.132-.353.132-.545v-4.846c0-.371-.166-.472-.52-.404-.253.049-5.689,1.146-5.689,1.146-.307.074-.414.174-.414.555v7.098c0,.279-.014.531-.073.81-.057.271-.161.525-.32.755-.159.229-.364.416-.602.557-.241.142-.494.227-.764.282-.507.102-.854.125-1.18.06-.314-.063-.581-.212-.794-.407-.316-.289-.5-.681-.543-1.089-.05-.479.096-.991.456-1.368.182-.19.409-.341.714-.459.318-.124.67-.197,1.21-.306.142-.029.285-.057.427-.086.187-.038.348-.086.477-.244.129-.158.145-.344.145-.535,0-1.503,0-8.184,0-8.184,0-.11.009-.184.015-.221.026-.172.095-.32.22-.425.104-.087.237-.147.408-.183h.003s6.539-1.32,6.539-1.32c.057-.012.529-.096.582-.1.353-.031.552.202.552.578v10.376Z" /></symbol><symbol id="applemusic" viewBox="0 0 24 24"><path d="m22.999,7.094c-.001-.221-.004-.443-.01-.664-.013-.482-.041-.968-.127-1.445-.087-.484-.229-.934-.453-1.374-.22-.432-.507-.827-.85-1.17-.343-.343-.738-.63-1.17-.85-.44-.224-.89-.366-1.373-.453-.477-.086-.963-.114-1.445-.127-.221-.006-.443-.009-.664-.01-.263-.002-.526-.001-.788-.001H7.882c-.263,0-.526,0-.788.001-.221.001-.443.004-.664.01-.482.013-.969.041-1.445.127-.484.087-.934.229-1.373.453-.432.22-.827.507-1.17.85-.343.343-.63.738-.85,1.17-.224.44-.366.89-.453,1.374-.086.477-.114.963-.127,1.445-.006.221-.009.443-.01.664-.002.263-.001.525-.001.788v8.236c0,.263,0,.526.001.788.001.221.004.443.01.664.013.482.041.968.127,1.445.087.484.229.934.453,1.374.22.432.507.827.85,1.17s.738.63,1.17.85c.44.224.89.366,1.373.453.477.086.963.114,1.445.127.221.006.443.008.664.01.263.002.526.002.788.002h8.236c.263,0,.526,0,.788-.002.221-.001.443-.004.664-.01.482-.013.969-.041,1.445-.127.484-.087.934-.229,1.373-.453.432-.22.827-.507,1.17-.85s.63-.738.85-1.17c.224-.44.366-.89.453-1.374.086-.477.114-.963.127-1.445.006-.221.009-.443.01-.664.002-.263.001-.526.001-.788V7.882c0-.263,0-.526-.001-.788Zm-5.894,8.222c0,.279-.003.531-.061.81-.057.271-.161.525-.32.755-.159.229-.364.416-.602.557-.241.142-.494.223-.764.278-.507.102-.854.125-1.18.06-.314-.063-.581-.208-.794-.403-.316-.289-.513-.681-.555-1.089-.05-.479.109-.991.469-1.368.181-.19.409-.341.714-.459.318-.124.67-.197,1.21-.306.142-.029.285-.057.427-.086.187-.038.348-.086.477-.244.13-.159.132-.353.132-.545v-4.846c0-.371-.166-.472-.52-.404-.253.049-5.689,1.146-5.689,1.146-.307.074-.414.174-.414.555v7.098c0,.279-.014.531-.073.81-.057.271-.161.525-.32.755-.159.229-.364.416-.602.557-.241.142-.494.227-.764.282-.507.102-.854.125-1.18.06-.314-.063-.581-.212-.794-.407-.316-.289-.5-.681-.543-1.089-.05-.479.096-.991.456-1.368.182-.19.409-.341.714-.459.318-.124.67-.197,1.21-.306.142-.029.285-.057.427-.086.187-.038.348-.086.477-.244.129-.158.145-.344.145-.535,0-1.503,0-8.184,0-8.184,0-.11.009-.184.015-.221.026-.172.095-.32.22-.425.104-.087.237-.147.408-.183h.003s6.539-1.32,6.539-1.32c.057-.012.529-.096.582-.1.353-.031.552.202.552.578v10.376Z" /></symbol><symbol id="applebooks" viewBox="0 0 24 24"><path d="m16.118,1c.263,0,.526,0,.788.001.221.001.443.004.664.01.482.013.969.041,1.445.127.484.087.934.229,1.373.453.432.22.827.507,1.17.85.343.343.63.738.85,1.17.224.44.366.89.453,1.374.086.477.114.963.127,1.445.006.221.009.443.01.664.001.263.001.526.001.788v8.236c0,.263,0,.526-.001.788-.001.221-.004.443-.01.664-.013.482-.041.968-.127,1.445-.087.484-.229.934-.453,1.374-.22.432-.507.827-.85,1.17-.343.343-.738.63-1.17.85-.439.224-.89.366-1.373.453-.477.086-.963.114-1.445.127-.221.006-.443.009-.664.01-.263.001-.526.001-.788.001H7.882c-.263,0-.526,0-.788-.001-.221-.001-.443-.004-.664-.01-.482-.013-.969-.041-1.445-.127-.484-.087-.934-.229-1.373-.453-.432-.22-.827-.507-1.17-.85-.343-.343-.63-.738-.85-1.17-.224-.44-.366-.89-.453-1.374-.086-.477-.114-.963-.127-1.445-.006-.221-.009-.443-.01-.664-.001-.263-.001-.526-.001-.788V7.882c0-.263,0-.526.001-.788.001-.221.004-.443.01-.664.013-.482.041-.968.127-1.445.087-.484.229-.934.453-1.374.22-.432.507-.827.85-1.17.343-.343.738-.63,1.17-.85.439-.224.89-.366,1.373-.453.477-.086.963-.114,1.445-.127.221-.006.443-.009.664-.01.263-.001.526-.001.788-.001h8.236Zm-.448,5.049c-1.286,0-2.488.496-3.18,1.398-.111.15-.124.196-.124.353v9.439c0,.15.104.248.235.248.072,0,.15-.026.215-.085.627-.542,1.567-.98,2.677-.98,1.143,0,2.279.359,3.075,1.084.104.091.215.144.359.144.255,0,.405-.157.405-.392v-9.074c0-.203-.007-.281-.078-.398-.673-1.111-2.168-1.738-3.585-1.738Zm-7.341,0c-1.417,0-2.912.627-3.585,1.738-.072.118-.078.196-.078.398v9.074c0,.235.15.392.405.392.144,0,.255-.052.359-.144.797-.725,1.933-1.084,3.075-1.084,1.11,0,2.05.438,2.677.98.065.059.144.085.215.085.131,0,.235-.098.235-.248V7.8c0-.157-.013-.203-.124-.353-.692-.901-1.893-1.398-3.18-1.398Z" /></symbol></svg>